<?xml version="1.0" encoding="UTF-8"?>
<svg width="155px" height="155px" viewBox="0 0 155 155" version="1.1" xmlns="http://www.w3.org/2000/svg" xmlns:xlink="http://www.w3.org/1999/xlink">
    <!-- Generator: Sketch 49.1 (51147) - http://www.bohemiancoding.com/sketch -->
    <title>GH</title>
    <desc>Created with Sketch.</desc>
    <defs></defs>
    <g id="GH" stroke="none" stroke-width="1" fill="none" fill-rule="evenodd">
        <g id="github" transform="translate(23.000000, 24.000000)" fill="#FFFFFF" fill-rule="nonzero">
            <path d="M54.6126126,0 C24.4530106,0 0,24.4530106 0,54.6126126 C0,78.7456275 15.6465135,99.212024 37.3494804,106.431875 C40.0794711,106.931922 41.0761513,105.245224 41.0761513,103.805243 C41.0761513,102.505207 41.0261252,98.1987041 40.9994589,93.6387643 C25.8129927,96.9386674 22.6030084,87.1988492 22.6030084,87.1988492 C20.1164279,80.8922658 16.5397284,79.212288 16.5397284,79.212288 C11.5764872,75.825666 16.9162568,75.8923318 16.9162568,75.8923318 C22.3994911,76.2722734 25.2862796,81.5189242 25.2862796,81.5189242 C30.159602,89.8654807 38.0727776,87.4521792 41.1794032,86.0521977 C41.6758233,82.5322442 43.089138,80.1189427 44.6460241,78.7589606 C32.5228775,77.3790322 19.7697658,72.692374 19.7697658,51.7659302 C19.7697658,45.7992889 21.8997643,40.9327931 25.3863316,37.1094836 C24.8296457,35.7228352 22.9496705,30.1662152 25.9262712,22.6497278 C25.9262712,22.6497278 30.5062641,21.1830804 40.9460196,28.2496539 C45.2992422,27.0330299 49.9692606,26.4330378 54.6125059,26.4129848 C59.2524447,26.4330378 63.925663,27.0396432 68.2857122,28.2562671 C78.705628,21.1830804 83.2922341,22.656341 83.2922341,22.656341 C86.2788614,30.1795484 84.3988862,35.7294485 83.8388936,37.1094836 C87.3387941,40.9327931 89.4521528,45.7993956 89.4521528,51.7659302 C89.4521528,72.7457066 76.6789881,77.3655923 64.5125353,78.7189611 C66.4792293,80.4122721 68.219153,83.7322283 68.219153,88.8254944 C68.219153,96.1254514 68.1457673,102.011987 68.1457673,103.811963 C68.1457673,105.265277 69.1390342,106.965202 71.9057177,106.431875 C93.5921515,99.1986909 109.225225,78.7322943 109.225225,54.6126126 C109.225225,24.4530106 84.7722146,0 54.6126126,0 Z" id="Shape"></path>
        </g>
    </g>
</svg>