<?xml version="1.0" encoding="UTF-8"?>
<svg width="173px" height="173px" viewBox="0 0 173 173" version="1.1" xmlns="http://www.w3.org/2000/svg" xmlns:xlink="http://www.w3.org/1999/xlink">
    <!-- Generator: Sketch 49.1 (51147) - http://www.bohemiancoding.com/sketch -->
    <title>2</title>
    <desc>Created with Sketch.</desc>
    <defs></defs>
    <g id="2" stroke="none" stroke-width="1" fill="none" fill-rule="evenodd">
        <path d="M17,61.5273438 L33.4648438,53.265625 L33.4648438,56.8789062 L20.2226562,63.03125 L33.4648438,69.1835938 L33.4648438,72.796875 L17,64.5742188 L17,61.5273438 Z M37.56875,46 L46.6898438,46 L46.6898438,58.03125 C47.4580768,57.3281215 48.3011673,56.7779968 49.2191406,56.3808594 C50.137114,55.983722 51.1494736,55.7851562 52.25625,55.7851562 C54.691158,55.7851562 56.5531186,56.465488 57.8421875,57.8261719 C59.1312564,59.1868558 59.7757813,61.1757682 59.7757813,63.7929688 L59.7757813,71.0390625 L62.7445313,71.0390625 L62.7445313,76.390625 L53.7015625,76.390625 L53.7015625,65.1601562 C53.7015625,64.0273381 53.4216174,63.1354199 52.8617188,62.484375 C52.3018201,61.8333301 51.5791711,61.5078125 50.69375,61.5078125 C50.1078096,61.5078125 49.4697951,61.6705713 48.7796875,61.9960938 C48.0895799,62.3216162 47.3929723,62.7968719 46.6898438,63.421875 L46.6898438,71.0390625 L49.6585938,71.0390625 L49.6585938,76.390625 L37.56875,76.390625 L37.56875,71.0390625 L40.69375,71.0390625 L40.69375,51.3515625 L37.56875,51.3515625 L37.56875,46 Z M72.825,56.15625 L76.8679688,56.15625 L76.8679688,61.2734375 L72.7859375,61.2734375 L72.746875,69.828125 C72.746875,70.3229191 72.7859371,70.7233058 72.8640625,71.0292969 C72.9421879,71.335288 73.056119,71.5794262 73.2058594,71.7617188 C73.3555997,71.9440113 73.5346344,72.067708 73.7429688,72.1328125 C73.9513031,72.197917 74.1921861,72.2304688 74.465625,72.2304688 C74.9604191,72.2304688 75.3966127,72.1816411 75.7742188,72.0839844 C76.1518248,71.9863276 76.5294252,71.8723965 76.9070313,71.7421875 L77.746875,75.5117188 C77.0828092,75.9283875 76.3438843,76.2604154 75.5300781,76.5078125 C74.716272,76.7552096 73.7494848,76.8789062 72.6296875,76.8789062 C71.8354127,76.8789062 71.0769567,76.7421889 70.3542969,76.46875 C69.631637,76.1953111 68.9968777,75.7819038 68.45,75.2285156 C67.9031223,74.6751274 67.4669287,73.981775 67.1414063,73.1484375 C66.8158838,72.3151 66.6596354,71.3450576 66.6726563,70.2382812 L66.73125,61.2734375 L63.8210938,61.2734375 L63.8210938,56.15625 L66.7507813,56.15625 L66.7898438,51.3125 L72.8640625,48.421875 L72.825,56.15625 Z M80.9523438,56.15625 L90.2101563,56.15625 L90.2101563,57.9140625 C91.0434938,57.2499967 91.9809844,56.7226582 93.0226563,56.3320312 C94.0643281,55.9414043 95.1385361,55.7460938 96.2453125,55.7460938 C97.7817785,55.7460938 99.1001247,56.0162733 100.200391,56.5566406 C101.300657,57.0970079 102.163278,57.9205674 102.788281,59.0273438 C103.217971,58.5455705 103.702992,58.1061218 104.243359,57.7089844 C104.783727,57.311847 105.359893,56.9667983 105.971875,56.6738281 C106.583857,56.3808579 107.225127,56.1529956 107.895703,55.9902344 C108.566279,55.8274731 109.253121,55.7460938 109.95625,55.7460938 C112.430221,55.7460938 114.331243,56.4296807 115.659375,57.796875 C116.987507,59.1640693 117.651563,61.1627473 117.651563,63.7929688 L117.651563,71.0390625 L120.522656,71.0390625 L120.522656,76.390625 L111.284375,76.390625 L111.284375,64.7890625 C111.284375,63.6432234 110.988154,62.7447949 110.395703,62.09375 C109.803252,61.4427051 108.979693,61.1171875 107.925,61.1171875 C107.19583,61.1171875 106.508988,61.2897118 105.864453,61.6347656 C105.219919,61.9798194 104.578649,62.5755166 103.940625,63.421875 C103.953646,63.5651049 103.960156,63.7115878 103.960156,63.8613281 L103.960156,71.0390625 L106.889844,71.0390625 L106.889844,76.390625 L97.6515625,76.390625 L97.6515625,64.75 C97.6515625,64.2031223 97.5669279,63.7083355 97.3976563,63.265625 C97.2283846,62.8229145 96.9940119,62.4453141 96.6945313,62.1328125 C96.3950506,61.8203109 96.0402364,61.5761728 95.6300781,61.4003906 C95.2199198,61.2246085 94.7674504,61.1302084 94.2726563,61.1171875 C93.6216113,61.1041666 92.9477899,61.2473943 92.2511719,61.546875 C91.5545538,61.8463557 90.8872428,62.3997355 90.2492188,63.2070312 L90.2492188,71.0390625 L93.4914063,71.0390625 L93.4914063,76.390625 L80.9132813,76.390625 L80.9132813,71.0390625 L83.9210938,71.0390625 L83.9210938,61.5078125 L80.9523438,61.5078125 L80.9523438,56.15625 Z M122.7125,46 L131.833594,46 L131.833594,71.0390625 L134.958594,71.0390625 L134.958594,76.390625 L122.7125,76.390625 L122.7125,71.0390625 L125.8375,71.0390625 L125.8375,51.3515625 L122.7125,51.3515625 L122.7125,46 Z M156.5625,64.5742188 L140.097656,72.796875 L140.097656,69.1835938 L153.339844,63.03125 L140.097656,56.8789062 L140.097656,53.265625 L156.5625,61.5273438 L156.5625,64.5742188 Z M43.3695313,106.269531 C43.916409,106.269531 44.3949198,106.119793 44.8050781,105.820312 C45.2152364,105.520832 45.5570299,105.126956 45.8304688,104.638672 C46.1039076,104.150388 46.3089837,103.593753 46.4457031,102.96875 C46.5824226,102.343747 46.6507813,101.705732 46.6507813,101.054688 L46.6507813,92.2265625 C46.6507813,91.4062459 46.7712228,90.6770865 47.0121094,90.0390625 C47.252996,89.4010385 47.5654929,88.8606793 47.9496094,88.4179688 C48.3337259,87.9752582 48.7731746,87.6399751 49.2679688,87.4121094 C49.7627629,87.1842437 50.26406,87.0703125 50.771875,87.0703125 L53.4476563,87.0703125 L53.4476563,89.53125 L52.1,89.53125 C51.3968715,89.53125 50.9118503,89.8730435 50.6449219,90.5566406 C50.3779935,91.2402378 50.2445313,92.1940043 50.2445313,93.4179688 L50.2445313,101.777344 C50.2445313,102.584639 50.1598967,103.300778 49.990625,103.925781 C49.8213533,104.550784 49.5902358,105.097654 49.2972656,105.566406 C49.0042954,106.035159 48.6592468,106.42578 48.2621094,106.738281 C47.864972,107.050783 47.4320336,107.291666 46.9632813,107.460938 L46.9632813,107.539062 C47.4320336,107.708334 47.864972,107.949217 48.2621094,108.261719 C48.6592468,108.57422 49.0042954,108.964841 49.2972656,109.433594 C49.5902358,109.902346 49.8213533,110.452471 49.990625,111.083984 C50.1598967,111.715498 50.2445313,112.428381 50.2445313,113.222656 L50.2445313,121.386719 C50.2445313,122.610683 50.3779935,123.56445 50.6449219,124.248047 C50.9118503,124.931644 51.3968715,125.273438 52.1,125.273438 L53.4476563,125.273438 L53.4476563,127.753906 L50.771875,127.753906 C50.26406,127.753906 49.7627629,127.639975 49.2679688,127.412109 C48.7731746,127.184244 48.3337259,126.848961 47.9496094,126.40625 C47.5654929,125.963539 47.252996,125.42318 47.0121094,124.785156 C46.7712228,124.147132 46.6507813,123.417973 46.6507813,122.597656 L46.6507813,113.945312 C46.6507813,113.294268 46.5824226,112.659508 46.4457031,112.041016 C46.3089837,111.422523 46.1039076,110.869143 45.8304688,110.380859 C45.5570299,109.892576 45.2152364,109.498699 44.8050781,109.199219 C44.3949198,108.899738 43.916409,108.75 43.3695313,108.75 L43.3695313,106.269531 Z M71.6726563,107.148438 C71.1127576,106.445309 70.4877639,105.914715 69.7976563,105.556641 C69.1075486,105.198566 68.2937547,105.045573 67.35625,105.097656 C66.6010379,105.045573 65.9141958,105.149738 65.2957031,105.410156 C64.6772105,105.670574 64.1433616,106.035154 63.6941406,106.503906 C63.2449196,106.972659 62.8966158,107.529294 62.6492188,108.173828 C62.4018217,108.818363 62.278125,109.544267 62.278125,110.351563 C62.278125,111.067712 62.408332,111.744788 62.66875,112.382812 C62.929168,113.020837 63.2839821,113.570961 63.7332031,114.033203 C64.1824241,114.495445 64.716273,114.85677 65.3347656,115.117188 C65.9532583,115.377605 66.6270797,115.533854 67.35625,115.585938 C67.9682322,115.533854 68.5248673,115.406902 69.0261719,115.205078 C69.5274765,115.003254 69.9734355,114.74284 70.3640625,114.423828 C70.7546895,114.104816 71.0899726,113.746747 71.3699219,113.349609 C71.6498712,112.952472 71.867968,112.578127 72.0242188,112.226562 L77.3953125,113.710938 C77.1739572,114.492191 76.7931017,115.305985 76.2527344,116.152344 C75.7123671,116.998702 75.0092491,117.770179 74.1433594,118.466797 C73.2774696,119.163415 72.2488341,119.739581 71.0574219,120.195312 C69.8660097,120.651044 68.5086014,120.878906 66.9851563,120.878906 C65.4356693,120.878906 64.0099023,120.595706 62.7078125,120.029297 C61.4057227,119.462888 60.2859422,118.691411 59.3484375,117.714844 C58.4109328,116.738276 57.6785183,115.592454 57.1511719,114.277344 C56.6238255,112.962233 56.3601563,111.549487 56.3601563,110.039062 C56.3601563,108.541659 56.6303358,107.151699 57.1707031,105.869141 C57.7110704,104.586582 58.4565057,103.466802 59.4070313,102.509766 C60.3575568,101.55273 61.4871028,100.807294 62.7957031,100.273438 C64.1043034,99.7395807 65.5268152,99.4986977 67.0632813,99.5507812 C68.1570367,99.4986977 69.218224,99.6223943 70.246875,99.921875 C71.275526,100.221356 72.2520787,100.67057 73.1765625,101.269531 L77.0632813,101.269531 L77.0632813,107.148438 L71.6726563,107.148438 Z M92.5734375,106.347656 C92.5734375,106.035155 92.4725271,105.735679 92.2707031,105.449219 C92.0688792,105.162759 91.7726582,104.91211 91.3820313,104.697266 C90.9914043,104.482421 90.5128935,104.309896 89.9464844,104.179688 C89.3800753,104.049479 88.7388057,103.984375 88.0226563,103.984375 C87.7492174,103.984375 87.4562516,104.007161 87.14375,104.052734 C86.8312484,104.098308 86.5415378,104.179687 86.2746094,104.296875 C86.007681,104.414063 85.786329,104.573567 85.6105469,104.775391 C85.4347648,104.977215 85.346875,105.234373 85.346875,105.546875 C85.346875,105.703126 85.3696612,105.852864 85.4152344,105.996094 C85.4608075,106.139324 85.5486973,106.276041 85.6789063,106.40625 C85.8091152,106.536459 85.9881499,106.6569 86.2160156,106.767578 C86.4438814,106.878256 86.7401023,106.966146 87.1046875,107.03125 L90.7765625,107.753906 C92.1046941,108.014324 93.2179643,108.339842 94.1164063,108.730469 C95.0148482,109.121096 95.7374973,109.57682 96.284375,110.097656 C96.8312527,110.618492 97.225129,111.197913 97.4660156,111.835938 C97.7069023,112.473962 97.8273438,113.164059 97.8273438,113.90625 C97.8273438,115.06511 97.5571642,116.080725 97.0167969,116.953125 C96.4764296,117.825525 95.7668013,118.551429 94.8878906,119.130859 C94.00898,119.710289 93.0194065,120.146483 91.9191406,120.439453 C90.8188747,120.732423 89.7088598,120.878906 88.5890625,120.878906 C87.8598922,120.878906 87.1990915,120.833334 86.6066406,120.742188 C86.0141898,120.651041 85.4803409,120.527345 85.0050781,120.371094 C84.5298153,120.214843 84.1066425,120.029298 83.7355469,119.814453 C83.3644513,119.599608 83.0226578,119.36198 82.7101563,119.101562 L79.175,119.101562 L79.175,113.671875 L84.7023438,113.671875 L84.7023438,113.789062 C84.7153647,114.166669 84.832551,114.495441 85.0539063,114.775391 C85.2752615,115.05534 85.5649722,115.292968 85.9230469,115.488281 C86.2811216,115.683595 86.6880186,115.830078 87.14375,115.927734 C87.5994814,116.025391 88.0812475,116.074219 88.5890625,116.074219 C89.7609434,116.074219 90.6137994,115.921225 91.1476563,115.615234 C91.6815131,115.309243 91.9484375,114.915367 91.9484375,114.433594 C91.9484375,114.055988 91.8182305,113.733725 91.5578125,113.466797 C91.2973945,113.199868 90.8351596,112.988282 90.1710938,112.832031 L86.4210938,112.03125 C84.0643111,111.575519 82.2869852,110.817063 81.0890625,109.755859 C79.8911398,108.694656 79.2921875,107.330737 79.2921875,105.664062 C79.2921875,104.687495 79.5200498,103.798832 79.9757813,102.998047 C80.4315127,102.197262 81.0499961,101.513675 81.83125,100.947266 C82.6125039,100.380857 83.5272083,99.9414078 84.5753906,99.6289062 C85.623573,99.3164047 86.7466086,99.1601562 87.9445313,99.1601562 C88.7648479,99.1601562 89.4940072,99.2089839 90.1320313,99.3066406 C90.7700553,99.4042974 91.3429662,99.5312492 91.8507813,99.6875 C92.3585963,99.8437508 92.8045554,100.029296 93.1886719,100.244141 C93.5727884,100.458985 93.9145818,100.683593 94.2140625,100.917969 L97.6125,100.917969 L97.6125,106.347656 L92.5734375,106.347656 Z M114.196875,106.347656 C114.196875,106.035155 114.095965,105.735679 113.894141,105.449219 C113.692317,105.162759 113.396096,104.91211 113.005469,104.697266 C112.614842,104.482421 112.136331,104.309896 111.569922,104.179688 C111.003513,104.049479 110.362243,103.984375 109.646094,103.984375 C109.372655,103.984375 109.079689,104.007161 108.767188,104.052734 C108.454686,104.098308 108.164975,104.179687 107.898047,104.296875 C107.631118,104.414063 107.409767,104.573567 107.233984,104.775391 C107.058202,104.977215 106.970313,105.234373 106.970313,105.546875 C106.970313,105.703126 106.993099,105.852864 107.038672,105.996094 C107.084245,106.139324 107.172135,106.276041 107.302344,106.40625 C107.432553,106.536459 107.611587,106.6569 107.839453,106.767578 C108.067319,106.878256 108.36354,106.966146 108.728125,107.03125 L112.4,107.753906 C113.728132,108.014324 114.841402,108.339842 115.739844,108.730469 C116.638286,109.121096 117.360935,109.57682 117.907813,110.097656 C118.45469,110.618492 118.848567,111.197913 119.089453,111.835938 C119.33034,112.473962 119.450781,113.164059 119.450781,113.90625 C119.450781,115.06511 119.180602,116.080725 118.640234,116.953125 C118.099867,117.825525 117.390239,118.551429 116.511328,119.130859 C115.632417,119.710289 114.642844,120.146483 113.542578,120.439453 C112.442312,120.732423 111.332297,120.878906 110.2125,120.878906 C109.48333,120.878906 108.822529,120.833334 108.230078,120.742188 C107.637627,120.651041 107.103778,120.527345 106.628516,120.371094 C106.153253,120.214843 105.73008,120.029298 105.358984,119.814453 C104.987889,119.599608 104.646095,119.36198 104.333594,119.101562 L100.798438,119.101562 L100.798438,113.671875 L106.325781,113.671875 L106.325781,113.789062 C106.338802,114.166669 106.455988,114.495441 106.677344,114.775391 C106.898699,115.05534 107.18841,115.292968 107.546484,115.488281 C107.904559,115.683595 108.311456,115.830078 108.767188,115.927734 C109.222919,116.025391 109.704685,116.074219 110.2125,116.074219 C111.384381,116.074219 112.237237,115.921225 112.771094,115.615234 C113.304951,115.309243 113.571875,114.915367 113.571875,114.433594 C113.571875,114.055988 113.441668,113.733725 113.18125,113.466797 C112.920832,113.199868 112.458597,112.988282 111.794531,112.832031 L108.044531,112.03125 C105.687749,111.575519 103.910423,110.817063 102.7125,109.755859 C101.514577,108.694656 100.915625,107.330737 100.915625,105.664062 C100.915625,104.687495 101.143487,103.798832 101.599219,102.998047 C102.05495,102.197262 102.673434,101.513675 103.454688,100.947266 C104.235941,100.380857 105.150646,99.9414078 106.198828,99.6289062 C107.24701,99.3164047 108.370046,99.1601562 109.567969,99.1601562 C110.388285,99.1601562 111.117445,99.2089839 111.755469,99.3066406 C112.393493,99.4042974 112.966404,99.5312492 113.474219,99.6875 C113.982034,99.8437508 114.427993,100.029296 114.812109,100.244141 C115.196226,100.458985 115.538019,100.683593 115.8375,100.917969 L119.235938,100.917969 L119.235938,106.347656 L114.196875,106.347656 Z M122.753906,127.753906 L122.753906,125.273438 L124.101563,125.273438 C124.804691,125.273438 125.289712,124.931644 125.556641,124.248047 C125.823569,123.56445 125.957031,122.610683 125.957031,121.386719 L125.957031,113.222656 C125.957031,112.428381 126.041666,111.715498 126.210938,111.083984 C126.380209,110.452471 126.611327,109.902346 126.904297,109.433594 C127.197267,108.964841 127.542316,108.57422 127.939453,108.261719 C128.336591,107.949217 128.763019,107.708334 129.21875,107.539062 L129.21875,107.460938 C128.763019,107.291666 128.336591,107.050783 127.939453,106.738281 C127.542316,106.42578 127.197267,106.035159 126.904297,105.566406 C126.611327,105.097654 126.380209,104.550784 126.210938,103.925781 C126.041666,103.300778 125.957031,102.584639 125.957031,101.777344 L125.957031,93.4179688 C125.957031,92.1940043 125.823569,91.2402378 125.556641,90.5566406 C125.289712,89.8730435 124.804691,89.53125 124.101563,89.53125 L122.753906,89.53125 L122.753906,87.0703125 L125.429688,87.0703125 C125.937503,87.0703125 126.4388,87.1842437 126.933594,87.4121094 C127.428388,87.6399751 127.867837,87.9752582 128.251953,88.4179688 C128.63607,88.8606793 128.948567,89.4010385 129.189453,90.0390625 C129.43034,90.6770865 129.550781,91.4062459 129.550781,92.2265625 L129.550781,101.054688 C129.550781,101.705732 129.61914,102.343747 129.755859,102.96875 C129.892579,103.593753 130.097655,104.150388 130.371094,104.638672 C130.644533,105.126956 130.986326,105.520832 131.396484,105.820312 C131.806643,106.119793 132.285154,106.269531 132.832031,106.269531 L132.832031,108.75 C132.285154,108.75 131.806643,108.899738 131.396484,109.199219 C130.986326,109.498699 130.644533,109.892576 130.371094,110.380859 C130.097655,110.869143 129.892579,111.422523 129.755859,112.041016 C129.61914,112.659508 129.550781,113.294268 129.550781,113.945312 L129.550781,122.597656 C129.550781,123.417973 129.43034,124.147132 129.189453,124.785156 C128.948567,125.42318 128.63607,125.963539 128.251953,126.40625 C127.867837,126.848961 127.428388,127.184244 126.933594,127.412109 C126.4388,127.639975 125.937503,127.753906 125.429688,127.753906 L122.753906,127.753906 Z" id="&lt;html&gt;-{css}" fill="#FFFFFF"></path>
    </g>
</svg>