<?xml version="1.0" encoding="UTF-8"?>
<svg width="173px" height="173px" viewBox="0 0 173 173" version="1.1" xmlns="http://www.w3.org/2000/svg" xmlns:xlink="http://www.w3.org/1999/xlink">
    <!-- Generator: Sketch 49.1 (51147) - http://www.bohemiancoding.com/sketch -->
    <title>3</title>
    <desc>Created with Sketch.</desc>
    <defs></defs>
    <g id="3" stroke="none" stroke-width="1" fill="none" fill-rule="evenodd">
        <g id="Group" transform="translate(25.000000, 28.000000)">
            <g id="angular" transform="translate(0.000000, 2.000000)" stroke="#FFFFFF" stroke-width="4">
                <polygon id="Path-9" points="25.6813639 59.3649472 47.9277344 45.7892923 52.486735 10.0479665 25.6813639 0 0 10.0479665 3.21329753 45.7892923"></polygon>
                <path d="M25.6166667,37.9920959 L25.6166667,59.4032085" id="Path-10"></path>
                <path d="M25.6166667,0.882352941 L25.6166667,8.75701904" id="Path-10-Copy"></path>
                <polyline id="Path-11" points="11.8266602 44.481273 25.6606608 15.2416992 39.4946615 44.481273"></polyline>
                <path d="M16.2864583,33.4053309 L34.320028,33.4053309" id="Path-12"></path>
            </g>
            <g id="react" transform="translate(59.000000, 0.000000)">
                <path d="M46.6530872,4.30122507 C52.5891025,7.08779327 50.1476129,21.1475242 41.806917,35.2651322 C33.4662212,49.3827402 22.0397696,58.6077152 16.1548012,55.7210945 C10.2698328,52.8344737 13.6066077,38.1273369 22.0666595,23.807705 C30.5267113,9.48807313 40.7170718,1.51465687 46.6530872,4.30122507 Z" id="Path-13" stroke="#FFFFFF" stroke-width="4"></path>
                <path d="M47.5951161,4.30122507 C53.5311315,7.08779327 51.0896419,21.1475242 42.748946,35.2651322 C34.4082502,49.3827402 22.9817986,58.6077152 17.0968302,55.7210945 C11.2118617,52.8344737 14.5486367,38.1273369 23.0086885,23.807705 C31.4687403,9.48807313 41.6591008,1.51465687 47.5951161,4.30122507 Z" id="Path-13-Copy" stroke="#FFFFFF" stroke-width="4" transform="translate(32.500000, 30.000000) rotate(-58.000000) translate(-32.500000, -30.000000) "></path>
                <ellipse id="Oval" fill="#FFFFFF" cx="32.557971" cy="29.40625" rx="5.18115942" ry="5.15625"></ellipse>
                <path d="M47.5951161,3.36372507 C53.5311315,6.15029327 51.0896419,20.2100242 42.748946,34.3276322 C34.4082502,48.4452402 22.9817986,57.6702152 17.0968302,54.7835945 C11.2118617,51.8969737 14.5486367,37.1898369 23.0086885,22.870205 C31.4687403,8.55057313 41.6591008,0.57715687 47.5951161,3.36372507 Z" id="Path-13-Copy-2" stroke="#FFFFFF" stroke-width="4" transform="translate(32.500000, 29.062500) rotate(-118.000000) translate(-32.500000, -29.062500) "></path>
            </g>
            <g id="node" transform="translate(29.000000, 58.000000)" stroke="#FFFFFF" stroke-width="4">
                <polygon id="Path-14" points="0.609879557 44.275764 0.609879557 15.5151005 26.1803955 0.0560087316 51.722876 15.5151005 52.2447673 44.275764 26.4273234 59.7725184"></polygon>
                <path d="M0.893684896,15.7677505 L26.1333822,59.5571002" id="Path-15"></path>
                <path d="M0.738411458,44.4377585 L8.91485189,30.1176183" id="Path-16"></path>
                <path d="M26.8519531,0.534237132 L51.2333333,44.3451287" id="Path-17"></path>
                <path d="M43.9579102,30.7117417 L51.3178711,15.7755055" id="Path-18"></path>
            </g>
        </g>
    </g>
</svg>