<?xml version="1.0" encoding="UTF-8"?>
<svg width="155px" height="155px" viewBox="0 0 155 155" version="1.1" xmlns="http://www.w3.org/2000/svg" xmlns:xlink="http://www.w3.org/1999/xlink">
    <!-- Generator: Sketch 49.1 (51147) - http://www.bohemiancoding.com/sketch -->
    <title>LI</title>
    <desc>Created with Sketch.</desc>
    <defs></defs>
    <g id="LI" stroke="none" stroke-width="1" fill="none" fill-rule="evenodd">
        <g id="linkedin" transform="translate(28.000000, 24.000000)" fill="#FFFFFF" fill-rule="nonzero">
            <path d="M98.8615776,107 L77.8963271,107 L76.7579616,107 L76.7579616,105.860716 L76.7579616,60.3917443 C76.7579616,57.9475 76.4298211,55.900037 75.4067485,54.5314991 C74.4249328,53.2182151 72.7010424,52.4514035 69.8472671,52.4514035 C60.6100181,52.4514035 58.3001189,59.4590073 58.0023726,60.5231717 L58.0023726,105.860702 L58.0023726,106.9999 L56.8640072,106.999984 L35.902314,106.999984 L34.7639485,107 L34.7639485,105.8607 L34.7639485,32.2626542 L34.7639485,31.1233701 L35.902314,31.1233701 L56.8640072,31.1233701 L58.0023726,31.1233701 L58.0023726,32.2626542 L58.0023726,37.1303657 C59.5571987,36.1195826 61.6235151,34.9473313 64.1425909,33.9119117 C67.8268399,32.3977129 72.4743639,31.175427 77.8963342,31.175427 C82.2208978,31.175427 89.3371191,32.7197306 94.3448058,39.5727374 C97.6353681,44.0758871 100,50.8651811 100,61.0061221 L100,105.860537 L100,107 L98.8616345,106.999821 L98.8615776,107 Z" id="Shape"></path>
            <path d="M11.7489806,22.0009818 C8.71385009,22.0009818 5.96165749,20.7673867 3.96859833,18.7679721 C1.98107384,16.7742723 0.751072961,14.0215551 0.751072961,10.9745113 C0.751072961,7.94525862 1.98309681,5.20186003 3.97331384,3.21587946 C5.96420045,1.22923073 8.71429172,0 11.7489948,0 L11.7579128,0.00444948158 C14.7940547,0.0334970473 17.540271,1.27347772 19.525046,3.25399938 C21.5153485,5.24014345 22.7467811,7.97078326 22.7467811,10.9745325 C22.7467811,14.0220029 21.5173643,16.7750611 19.529847,18.7689174 C17.5372793,20.7677421 14.7854998,22.001003 11.7490373,22.001003 L11.7489806,22.0009818 Z" id="Shape"></path>
            <polygon id="Shape" points="22.146186 107 1.13714688 107 0 107 0 105.860742 0 32.2626278 0 31.1233701 1.13714688 31.1233701 22.146186 31.1233701 23.2832618 31.1233701 23.2832618 32.2626278 23.2832618 105.860742 23.2832618 107"></polygon>
        </g>
    </g>
</svg>