<?xml version="1.0" encoding="UTF-8"?>
<svg width="1406px" height="1505px" viewBox="0 0 1406 1505" version="1.1" xmlns="http://www.w3.org/2000/svg" xmlns:xlink="http://www.w3.org/1999/xlink">
    <!-- Generator: Sketch 49.1 (51147) - http://www.bohemiancoding.com/sketch -->
    <title>Untitled</title>
    <desc>Created with Sketch.</desc>
    <defs></defs>
    <g id="Page-1" stroke="none" stroke-width="1" fill="none" fill-rule="evenodd">
        <g id="linkedin" fill="#FFFFFF" fill-rule="nonzero">
            <g id="Layer_x0020_1">
                <path d="M1389.49,1505 L1094.811,1505 L1078.8106,1505 L1078.8106,1488.9996 L1078.8106,850.4216 C1078.8106,816.094 1074.19839,787.3389 1059.8185,768.1188 C1046.0185,749.6747 1021.7882,738.9054 981.6767,738.9054 C851.8417,738.9054 819.3747,837.322 815.1897,852.2674 L815.1897,1488.9994 L815.1897,1504.9986 L799.1893,1504.99978 L504.5603,1504.99978 L488.5599,1505 L488.5599,1488.99938 L488.5599,455.369381 L488.5599,439.368981 L504.5603,439.368981 L799.1893,439.368981 L815.1897,439.368981 L815.1897,455.369381 L815.1897,523.732781 C837.0437,509.537081 866.087,493.073681 901.4941,478.531981 C953.2784,457.266181 1018.6021,440.100081 1094.8111,440.100081 C1155.5954,440.100081 1255.6181,461.788681 1326.0041,558.034081 C1372.2549,621.277481 1405.4912,716.628081 1405.4912,859.050081 L1405.4912,1488.99708 L1405.4912,1505 L1389.4908,1504.99748 L1389.49,1505 Z" id="Shape"></path>
                <path d="M164.321,310.524 C121.7115,310.524 83.0741,293.1689 55.094,265.0397 C27.1916,236.9909 9.9239,198.2637 9.9239,155.3957 C9.9239,112.778 27.22,74.1819 55.1602,46.2417 C83.1098,18.2921 121.7177,0.9984 164.3212,0.9984 L164.446397,1.0609985 C207.070097,1.4696605 245.623597,18.9145985 273.487397,46.7779985 C301.428797,74.7204985 318.716597,113.137099 318.716597,155.395999 C318.716597,198.269999 301.457097,237.001998 273.554797,265.052999 C245.581597,293.173899 206.949997,310.524299 164.321797,310.524299 L164.321,310.524 Z" id="Shape"></path>
                <polygon id="Shape" points="312.132 1505 16.51 1505 0.509 1505 0.509 1489 0.509 455.371 0.509 439.371 16.51 439.371 312.132 439.371 328.132 439.371 328.132 455.371 328.132 1489 328.132 1505"></polygon>
            </g>
        </g>
    </g>
</svg>