<?xml version="1.0" encoding="UTF-8"?>
<svg width="668px" height="653px" viewBox="0 0 668 653" version="1.1" xmlns="http://www.w3.org/2000/svg" xmlns:xlink="http://www.w3.org/1999/xlink">
    <!-- Generator: Sketch 49.1 (51147) - http://www.bohemiancoding.com/sketch -->
    <title>Artboard</title>
    <desc>Created with Sketch.</desc>
    <defs></defs>
    <g id="Artboard" stroke="none" stroke-width="1" fill="none" fill-rule="evenodd">
        <path d="M99,399.332987 L137.839143,329.990523 C150.138433,176.73504 216.938033,100.071533 338.237941,100 C518.160511,100 503.367347,511.942309 262.543936,511.942309 C191.542481,513.69551 149.974217,475.489263 137.839143,397.32357 L99,399.332987 Z" id="Path" stroke="#F5C0A5" stroke-width="10" fill="#FADFD5"></path>
        <path d="M288.960065,481.993746 C299.766661,411.777731 329.145997,323.167532 247.487262,260.492644 C177.771633,205.630162 170.647949,105.401865 337.822127,100.015345 C448.217738,98.7350711 514.154769,177.647583 539.983979,306.094189 C565.813189,434.540795 562.780546,513.990843 537.839844,513.990843 C514.86948,516.188387 514.549227,488.699573 491.297665,492.29644 C468.046104,495.893308 478.116508,530.308485 454.93134,530.308485 C431.746173,530.308485 436.567547,503.733036 414.841094,507.663634 C393.114641,511.594232 402.538651,542.843853 382.229935,545.209237 C361.921218,547.574622 351.416309,518.369541 337.822127,521.984751 C323.000939,525.926268 319.03849,567.817006 291.258468,555.861275 C284.517527,551.048537 278.153469,552.209761 288.960065,481.993746 Z" id="Path" stroke="#F5C16B" stroke-width="10" fill="#F8D39A"></path>
        <circle id="Oval" fill="#494544" cx="215" cy="329" r="13"></circle>
        <path d="M174,459 C195.620134,458.379128 214.2868,448.712461 230,430" id="Path-3" stroke="#494544" stroke-width="8" stroke-linecap="round"></path>
        <path d="M185,304 C202.170467,288.774736 221.170467,286.923049 242,298.444938" id="Path-2" stroke="#494544" stroke-width="8" stroke-linecap="round"></path>
    </g>
</svg>