<?xml version="1.0" encoding="UTF-8"?>
<svg width="173px" height="173px" viewBox="0 0 173 173" version="1.1" xmlns="http://www.w3.org/2000/svg" xmlns:xlink="http://www.w3.org/1999/xlink">
    <!-- Generator: Sketch 49.1 (51147) - http://www.bohemiancoding.com/sketch -->
    <title>1</title>
    <desc>Created with Sketch.</desc>
    <defs></defs>
    <g id="1" stroke="none" stroke-width="1" fill="none" fill-rule="evenodd">
        <g id="Group" transform="translate(50.000000, 23.000000)" stroke="#FFFFFF" stroke-width="4">
            <g id="rails" transform="translate(0.000000, 66.000000)">
                <path d="M0,62 L19,0" id="Path-5"></path>
                <path d="M55,62 L74,0" id="Path-5-Copy" transform="translate(64.500000, 31.000000) scale(-1, 1) translate(-64.500000, -31.000000) "></path>
                <path d="M10,28 L63,28" id="Path-7"></path>
                <path d="M5,45 L68,45" id="Path-8"></path>
                <path d="M15,11 L58,11" id="Path-6"></path>
            </g>
            <g id="ruby" transform="translate(1.000000, 0.000000)">
                <polygon id="Path" points="70.6240234 18.3134766 35.3120117 61.4741211 0 18.3134766 14.6591797 0 55.7460937 0"></polygon>
                <polyline id="Path-2-Copy" transform="translate(45.230713, 30.465820) scale(-1, 1) translate(-45.230713, -30.465820) " points="35 0 43.302002 18 55.4614258 60.9316406"></polyline>
                <polyline id="Path-2-Copy-2" points="15 0 23.302002 18 35.4614258 60.9316406"></polyline>
                <path d="M0.118164062,18.097168 L70.2602447,18.097168" id="Path-3"></path>
            </g>
        </g>
    </g>
</svg>